<svg xmlns="http://www.w3.org/2000/svg" xmlns:xlink="http://www.w3.org/1999/xlink" width="500" zoomAndPan="magnify" viewBox="0 0 375 374.999991" height="500" preserveAspectRatio="xMidYMid meet" version="1.2"><defs><clipPath id="608db317ea"><path d="M 43 10 L 347 10 L 347 364 L 43 364 Z M 43 10 "/></clipPath><clipPath id="cb700dc5c2"><path d="M 418.992188 332.371094 L 37.226562 419.117188 L -44.035156 61.480469 L 337.734375 -25.261719 Z M 418.992188 332.371094 "/></clipPath><clipPath id="8cd8da77e8"><path d="M 418.992188 332.371094 L 37.226562 419.117188 L -44.035156 61.480469 L 337.734375 -25.261719 Z M 418.992188 332.371094 "/></clipPath><clipPath id="6db15c5507"><path d="M 34 1 L 355 1 L 355 373 L 34 373 Z M 34 1 "/></clipPath><clipPath id="7e247239a6"><path d="M 418.992188 332.371094 L 37.226562 419.117188 L -44.035156 61.480469 L 337.734375 -25.261719 Z M 418.992188 332.371094 "/></clipPath><clipPath id="e22b379662"><path d="M 418.992188 332.371094 L 37.226562 419.117188 L -44.035156 61.480469 L 337.734375 -25.261719 Z M 418.992188 332.371094 "/></clipPath><clipPath id="efbbbf2bdf"><path d="M 301 151 L 318.9375 151 L 318.9375 170 L 301 170 Z M 301 151 "/></clipPath><clipPath id="05a347f2ef"><path d="M 301 114 L 318.9375 114 L 318.9375 148 L 301 148 Z M 301 114 "/></clipPath><clipPath id="37cf443160"><path d="M 56.4375 151 L 74 151 L 74 170 L 56.4375 170 Z M 56.4375 151 "/></clipPath><clipPath id="33b7fdaff0"><path d="M 56.4375 114 L 74 114 L 74 148 L 56.4375 148 Z M 56.4375 114 "/></clipPath><clipPath id="2015184427"><path d="M 251 317 L 287 317 L 287 337.5 L 251 337.5 Z M 251 317 "/></clipPath><clipPath id="f44e549977"><path d="M 89 317 L 124 317 L 124 337.5 L 89 337.5 Z M 89 317 "/></clipPath></defs><g id="b4da8e6bdd"><g clip-rule="nonzero" clip-path="url(#608db317ea)"><g clip-rule="nonzero" clip-path="url(#cb700dc5c2)"><g clip-rule="nonzero" clip-path="url(#8cd8da77e8)"><path style=" stroke:none;fill-rule:nonzero;fill:#004aad;fill-opacity:1;" d="M 137.550781 360.5 C 182.378906 350.398438 231.226562 315.996094 271.101562 270.472656 C 235.367188 308.789062 193.042969 337.355469 153.992188 346.160156 C 80.8125 362.648438 46.824219 303.515625 78.078125 214.085938 C 109.324219 124.65625 193.976562 38.800781 267.15625 22.3125 C 306.214844 13.515625 334.101562 26.257812 346.867188 53.65625 C 334.714844 19.855469 303.621094 3.460938 258.792969 13.550781 C 180.390625 31.210938 89.703125 123.199219 56.222656 219.003906 C 22.738281 314.8125 59.15625 378.15625 137.550781 360.5 Z M 137.550781 360.5 "/></g></g></g><g clip-rule="nonzero" clip-path="url(#6db15c5507)"><g clip-rule="nonzero" clip-path="url(#7e247239a6)"><g clip-rule="nonzero" clip-path="url(#e22b379662)"><path style=" stroke:none;fill-rule:nonzero;fill:#004aad;fill-opacity:1;" d="M 205.425781 336.015625 C 108.25 402.96875 27.820312 375.097656 35.308594 278.050781 C 41.425781 182.238281 135.6875 54.828125 230.230469 14.515625 C 290.644531 -12.222656 341.175781 2.199219 354.777344 50.820312 C 337.59375 -1.980469 276.285156 -11.308594 207.246094 29.496094 C 103.210938 89.667969 20.578125 233.113281 41.980469 316.726562 C 57.472656 380.03125 127.273438 387.886719 205.425781 336.015625 Z M 205.425781 336.015625 "/></g></g></g><g clip-rule="nonzero" clip-path="url(#efbbbf2bdf)"><path style=" stroke:none;fill-rule:nonzero;fill:#190a72;fill-opacity:1;" d="M 316.53125 151.46875 L 303.632812 151.46875 C 302.5 151.46875 301.585938 152.386719 301.585938 153.519531 L 301.585938 166.988281 C 301.585938 168.746094 303.453125 169.871094 305.007812 169.054688 L 316.054688 163.242188 C 317.609375 162.421875 318.582031 160.808594 318.582031 159.050781 L 318.582031 153.519531 C 318.582031 152.386719 317.664062 151.46875 316.53125 151.46875 "/></g><g clip-rule="nonzero" clip-path="url(#05a347f2ef)"><path style=" stroke:none;fill-rule:nonzero;fill:#190a72;fill-opacity:1;" d="M 315.683594 119.539062 L 304.824219 114.964844 C 303.285156 114.316406 301.585938 115.445312 301.585938 117.117188 L 301.585938 145.242188 C 301.585938 146.375 302.5 147.292969 303.632812 147.292969 L 316.53125 147.292969 C 317.664062 147.292969 318.582031 146.375 318.582031 145.242188 L 318.582031 123.902344 C 318.582031 121.996094 317.441406 120.277344 315.683594 119.539062 "/></g><g clip-rule="nonzero" clip-path="url(#37cf443160)"><path style=" stroke:none;fill-rule:nonzero;fill:#190a72;fill-opacity:1;" d="M 73.453125 166.988281 L 73.453125 153.519531 C 73.453125 152.386719 72.535156 151.46875 71.402344 151.46875 L 58.503906 151.46875 C 57.371094 151.46875 56.457031 152.386719 56.457031 153.519531 L 56.457031 159.050781 C 56.457031 160.808594 57.429688 162.421875 58.984375 163.242188 L 70.03125 169.054688 C 71.585938 169.871094 73.453125 168.746094 73.453125 166.988281 "/></g><g clip-rule="nonzero" clip-path="url(#33b7fdaff0)"><path style=" stroke:none;fill-rule:nonzero;fill:#190a72;fill-opacity:1;" d="M 58.503906 147.292969 L 71.402344 147.292969 C 72.535156 147.292969 73.453125 146.375 73.453125 145.242188 L 73.453125 117.117188 C 73.453125 115.445312 71.75 114.316406 70.210938 114.964844 L 59.351562 119.539062 C 57.597656 120.277344 56.457031 121.996094 56.457031 123.902344 L 56.457031 145.242188 C 56.457031 146.375 57.371094 147.292969 58.503906 147.292969 "/></g><path style=" stroke:none;fill-rule:nonzero;fill:#190a72;fill-opacity:1;" d="M 187.382812 271.105469 L 142.445312 271.105469 C 141.804688 271.105469 141.355469 271.738281 141.570312 272.34375 L 143.28125 277.136719 C 143.621094 278.085938 144.355469 278.839844 145.292969 279.207031 L 157.480469 283.945312 C 158.046875 284.164062 158.648438 284.277344 159.257812 284.277344 L 215.511719 284.277344 C 216.117188 284.277344 216.722656 284.164062 217.285156 283.945312 L 229.476562 279.207031 C 230.414062 278.839844 231.148438 278.085938 231.484375 277.136719 L 233.199219 272.34375 C 233.414062 271.738281 232.964844 271.105469 232.324219 271.105469 L 187.382812 271.105469 "/><path style=" stroke:none;fill-rule:nonzero;fill:#190a72;fill-opacity:1;" d="M 237.535156 258.25 L 239.253906 253.449219 C 239.46875 252.84375 239.019531 252.207031 238.378906 252.207031 L 136.65625 252.207031 C 136.015625 252.207031 135.566406 252.84375 135.785156 253.449219 L 137.5 258.25 C 137.839844 259.199219 138.574219 259.949219 139.511719 260.316406 L 151.699219 265.058594 C 152.265625 265.277344 152.871094 265.390625 153.476562 265.390625 L 221.558594 265.390625 C 222.167969 265.390625 222.769531 265.277344 223.335938 265.058594 L 235.527344 260.316406 C 236.464844 259.949219 237.199219 259.199219 237.535156 258.25 "/><path style=" stroke:none;fill-rule:nonzero;fill:#190a72;fill-opacity:1;" d="M 303.917969 107.308594 C 305.230469 107.308594 306.507812 107.566406 307.722656 108.078125 L 314.320312 110.855469 L 314.320312 109.296875 C 314.320312 107.574219 313.144531 106.074219 311.46875 105.667969 L 289.222656 100.257812 L 290.480469 108.253906 L 297.277344 109.90625 C 299.027344 108.292969 301.359375 107.308594 303.917969 107.308594 "/><path style=" stroke:none;fill-rule:nonzero;fill:#190a72;fill-opacity:1;" d="M 303.921875 176.796875 C 301.28125 176.796875 298.882812 175.746094 297.117188 174.042969 L 295.296875 174.632812 C 295.390625 177.207031 295.476562 179.796875 295.554688 182.402344 L 311.734375 177.175781 C 313.277344 176.675781 314.320312 175.242188 314.320312 173.621094 L 314.320312 172.59375 L 308.488281 175.664062 C 307.082031 176.40625 305.5 176.796875 303.921875 176.796875 "/><path style=" stroke:none;fill-rule:nonzero;fill:#190a72;fill-opacity:1;" d="M 60.714844 109.296875 L 60.714844 110.855469 L 67.3125 108.078125 C 68.527344 107.566406 69.808594 107.308594 71.121094 107.308594 C 73.679688 107.308594 76.011719 108.292969 77.757812 109.90625 L 84.558594 108.253906 L 85.816406 100.257812 L 63.570312 105.667969 C 61.894531 106.074219 60.714844 107.574219 60.714844 109.296875 "/><path style=" stroke:none;fill-rule:nonzero;fill:#190a72;fill-opacity:1;" d="M 77.921875 174.050781 C 76.082031 175.820312 73.664062 176.796875 71.117188 176.796875 C 71.117188 176.796875 71.117188 176.796875 71.113281 176.796875 C 69.535156 176.796875 67.957031 176.40625 66.550781 175.664062 L 60.714844 172.59375 L 60.714844 173.621094 C 60.714844 175.242188 61.761719 176.675781 63.304688 177.175781 L 79.484375 182.402344 C 79.5625 179.796875 79.648438 177.207031 79.738281 174.632812 L 77.925781 174.046875 C 77.925781 174.046875 77.925781 174.050781 77.921875 174.050781 "/><path style=" stroke:none;fill-rule:nonzero;fill:#190a72;fill-opacity:1;" d="M 98.679688 115.183594 C 117.371094 114.140625 150.371094 113.507812 187.519531 113.507812 C 224.664062 113.507812 257.664062 114.140625 276.359375 115.183594 C 277.824219 126.808594 279.007812 142.921875 279.894531 163.234375 L 95.140625 163.234375 C 96.027344 142.925781 97.214844 126.808594 98.679688 115.183594 Z M 287.675781 170.707031 C 286.777344 146.984375 285.378906 125.152344 283.242188 110.316406 L 282.894531 108.113281 C 264.363281 106.730469 225.941406 106.039062 187.519531 106.039062 C 149.097656 106.039062 110.675781 106.730469 92.140625 108.113281 L 91.792969 110.316406 C 89.65625 125.152344 88.261719 146.984375 87.359375 170.707031 L 287.675781 170.707031 "/><path style=" stroke:none;fill-rule:nonzero;fill:#190a72;fill-opacity:1;" d="M 118.25 212.550781 C 118.128906 210.3125 119.914062 208.429688 122.160156 208.429688 L 252.878906 208.429688 C 255.121094 208.429688 256.90625 210.3125 256.789062 212.550781 L 255.421875 238.691406 L 288.953125 223.269531 C 288.757812 208.527344 288.441406 193.089844 287.945312 178.179688 L 87.09375 178.179688 C 86.59375 193.132812 86.277344 208.613281 86.082031 223.394531 L 119.625 238.816406 L 118.25 212.550781 "/><path style=" stroke:none;fill-rule:nonzero;fill:#190a72;fill-opacity:1;" d="M 281.703125 100.539062 L 274.632812 55.640625 C 273.511719 48.542969 267.886719 43.03125 260.769531 42.03125 C 228.496094 37.503906 146.542969 37.503906 114.269531 42.03125 C 107.152344 43.03125 101.527344 48.542969 100.40625 55.640625 L 93.335938 100.539062 C 111.296875 99.320312 147.019531 98.566406 187.519531 98.566406 C 228.015625 98.566406 263.742188 99.320312 281.703125 100.539062 "/><path style=" stroke:none;fill-rule:nonzero;fill:#190a72;fill-opacity:1;" d="M 289.199219 285.863281 L 262.492188 293.296875 C 260.667969 293.804688 259.027344 292.054688 259.652344 290.269531 L 270.464844 259.429688 C 271.472656 256.546875 273.710938 254.261719 276.570312 253.191406 L 287.820312 248.972656 C 288.28125 248.796875 288.757812 248.777344 289.191406 248.882812 C 289.269531 263.359375 289.25 276.191406 289.199219 285.863281 Z M 256.484375 246.421875 C 256.019531 246.640625 255.511719 246.75 255 246.761719 L 254.683594 252.742188 C 254.640625 253.613281 254.488281 254.480469 254.234375 255.316406 L 242.679688 293.476562 C 242.132812 295.285156 240.664062 296.667969 238.824219 297.097656 L 223.515625 300.683594 C 222.976562 300.808594 222.425781 300.875 221.871094 300.875 L 153.164062 300.875 C 152.613281 300.875 152.0625 300.808594 151.523438 300.683594 L 136.214844 297.097656 C 134.375 296.667969 132.902344 295.285156 132.355469 293.476562 L 120.800781 255.316406 C 120.550781 254.480469 120.398438 253.613281 120.351562 252.742188 L 120.039062 246.765625 L 119.84375 246.765625 C 119.304688 246.765625 118.773438 246.648438 118.285156 246.421875 L 85.984375 231.570312 C 85.921875 237.527344 85.878906 243.328125 85.847656 248.882812 C 86.28125 248.777344 86.757812 248.796875 87.21875 248.972656 L 98.464844 253.191406 C 101.328125 254.261719 103.566406 256.546875 104.574219 259.429688 L 115.382812 290.269531 C 116.007812 292.054688 114.367188 293.804688 112.546875 293.296875 L 85.835938 285.863281 C 85.867188 292.679688 85.910156 297.925781 85.941406 301.082031 C 85.964844 303.277344 86.628906 305.417969 87.851562 307.238281 C 88.203125 307.757812 88.589844 308.242188 89.011719 308.691406 C 89.851562 309.578125 90.828125 310.320312 91.894531 310.890625 C 93.496094 311.742188 95.308594 312.207031 97.175781 312.207031 L 277.859375 312.207031 C 280.976562 312.207031 283.921875 310.914062 286.023438 308.6875 C 286.445312 308.242188 286.835938 307.757812 287.183594 307.238281 C 287.796875 306.328125 288.265625 305.339844 288.59375 304.300781 C 288.914062 303.261719 289.085938 302.175781 289.097656 301.082031 C 289.1875 291.710938 289.398438 263.902344 289.050781 231.449219 L 256.484375 246.421875 "/><g clip-rule="nonzero" clip-path="url(#2015184427)"><path style=" stroke:none;fill-rule:nonzero;fill:#190a72;fill-opacity:1;" d="M 251.046875 319.679688 L 251.046875 330.851562 C 251.046875 334.511719 254.015625 337.484375 257.675781 337.484375 L 279.390625 337.484375 C 283.054688 337.484375 286.023438 334.511719 286.023438 330.851562 L 286.023438 317.792969 C 283.5 319.015625 280.707031 319.679688 277.859375 319.679688 L 251.046875 319.679688 "/></g><g clip-rule="nonzero" clip-path="url(#f44e549977)"><path style=" stroke:none;fill-rule:nonzero;fill:#190a72;fill-opacity:1;" d="M 89.011719 317.792969 L 89.011719 330.851562 C 89.011719 334.511719 91.980469 337.484375 95.644531 337.484375 L 117.363281 337.484375 C 121.019531 337.484375 123.992188 334.511719 123.992188 330.851562 L 123.992188 319.679688 L 97.175781 319.679688 C 94.359375 319.679688 91.550781 319.023438 89.011719 317.792969 "/></g></g></svg>